G04 #@! TF.FileFunction,Legend,Bot*
%FSLAX46Y46*%
G04 Gerber Fmt 4.6, Leading zero omitted, Abs format (unit mm)*
G04 Created by KiCad (PCBNEW 4.0.7-e2-6376~58~ubuntu16.04.1) date Tue May 29 14:50:19 2018*
%MOMM*%
%LPD*%
G01*
G04 APERTURE LIST*
%ADD10C,0.100000*%
%ADD11C,0.120000*%
%ADD12C,0.150000*%
G04 APERTURE END LIST*
D10*
D11*
X117305000Y-135185000D02*
X117305000Y-130035000D01*
X117305000Y-130035000D02*
X127855000Y-130035000D01*
X127855000Y-130035000D02*
X127855000Y-135135000D01*
X149690000Y-135185000D02*
X149690000Y-130035000D01*
X149690000Y-130035000D02*
X160240000Y-130035000D01*
X160240000Y-130035000D02*
X160240000Y-135135000D01*
D12*
X175239000Y-126023000D02*
X175339000Y-126023000D01*
X182064000Y-126023000D02*
X182039000Y-126023000D01*
X182064000Y-121373000D02*
X182039000Y-121373000D01*
X175239000Y-120298000D02*
X175239000Y-126023000D01*
X182064000Y-121373000D02*
X182064000Y-126023000D01*
D11*
X170996000Y-124444000D02*
X170996000Y-122444000D01*
X168856000Y-122444000D02*
X168856000Y-124444000D01*
X175514000Y-131456000D02*
X175894000Y-131456000D01*
X175514000Y-135506000D02*
X175514000Y-135766000D01*
X175514000Y-131456000D02*
X175514000Y-133226000D01*
X183134000Y-131456000D02*
X182754000Y-131456000D01*
X183134000Y-133226000D02*
X183134000Y-131456000D01*
X183134000Y-135766000D02*
X183134000Y-135506000D01*
X163955000Y-125025000D02*
X163955000Y-126225000D01*
X163955000Y-126225000D02*
X166655000Y-126225000D01*
X167955000Y-121425000D02*
X163955000Y-121425000D01*
X163955000Y-121425000D02*
X163955000Y-122625000D01*
D12*
X173841381Y-122936095D02*
X174650905Y-122936095D01*
X174746143Y-122983714D01*
X174793762Y-123031333D01*
X174841381Y-123126571D01*
X174841381Y-123317048D01*
X174793762Y-123412286D01*
X174746143Y-123459905D01*
X174650905Y-123507524D01*
X173841381Y-123507524D01*
X173841381Y-123888476D02*
X173841381Y-124555143D01*
X174841381Y-124126571D01*
X168528381Y-123277334D02*
X168052190Y-122944000D01*
X168528381Y-122705905D02*
X167528381Y-122705905D01*
X167528381Y-123086858D01*
X167576000Y-123182096D01*
X167623619Y-123229715D01*
X167718857Y-123277334D01*
X167861714Y-123277334D01*
X167956952Y-123229715D01*
X168004571Y-123182096D01*
X168052190Y-123086858D01*
X168052190Y-122705905D01*
X167623619Y-123658286D02*
X167576000Y-123705905D01*
X167528381Y-123801143D01*
X167528381Y-124039239D01*
X167576000Y-124134477D01*
X167623619Y-124182096D01*
X167718857Y-124229715D01*
X167814095Y-124229715D01*
X167956952Y-124182096D01*
X168528381Y-123610667D01*
X168528381Y-124229715D01*
X179657333Y-129318381D02*
X179657333Y-130032667D01*
X179704953Y-130175524D01*
X179800191Y-130270762D01*
X179943048Y-130318381D01*
X180038286Y-130318381D01*
X178704952Y-129318381D02*
X179181143Y-129318381D01*
X179228762Y-129794571D01*
X179181143Y-129746952D01*
X179085905Y-129699333D01*
X178847809Y-129699333D01*
X178752571Y-129746952D01*
X178704952Y-129794571D01*
X178657333Y-129889810D01*
X178657333Y-130127905D01*
X178704952Y-130223143D01*
X178752571Y-130270762D01*
X178847809Y-130318381D01*
X179085905Y-130318381D01*
X179181143Y-130270762D01*
X179228762Y-130223143D01*
X166523095Y-120077381D02*
X166523095Y-120886905D01*
X166475476Y-120982143D01*
X166427857Y-121029762D01*
X166332619Y-121077381D01*
X166142142Y-121077381D01*
X166046904Y-121029762D01*
X165999285Y-120982143D01*
X165951666Y-120886905D01*
X165951666Y-120077381D01*
X164951666Y-121077381D02*
X165523095Y-121077381D01*
X165237381Y-121077381D02*
X165237381Y-120077381D01*
X165332619Y-120220238D01*
X165427857Y-120315476D01*
X165523095Y-120363095D01*
X164618333Y-120077381D02*
X163999285Y-120077381D01*
X164332619Y-120458333D01*
X164189761Y-120458333D01*
X164094523Y-120505952D01*
X164046904Y-120553571D01*
X163999285Y-120648810D01*
X163999285Y-120886905D01*
X164046904Y-120982143D01*
X164094523Y-121029762D01*
X164189761Y-121077381D01*
X164475476Y-121077381D01*
X164570714Y-121029762D01*
X164618333Y-120982143D01*
M02*
