G04 #@! TF.FileFunction,Soldermask,Bot*
%FSLAX46Y46*%
G04 Gerber Fmt 4.6, Leading zero omitted, Abs format (unit mm)*
G04 Created by KiCad (PCBNEW 4.0.7-e2-6376~58~ubuntu16.04.1) date Tue Jul 31 10:43:38 2018*
%MOMM*%
%LPD*%
G01*
G04 APERTURE LIST*
%ADD10C,0.100000*%
%ADD11R,2.000000X2.000000*%
%ADD12O,2.000000X2.000000*%
%ADD13R,2.180000X5.480000*%
%ADD14C,2.000000*%
%ADD15R,3.900000X3.900000*%
%ADD16C,2.400000*%
%ADD17R,2.200000X2.200000*%
%ADD18O,2.200000X2.200000*%
%ADD19C,4.464000*%
%ADD20R,2.100000X2.100000*%
%ADD21O,2.100000X2.100000*%
%ADD22C,1.800000*%
%ADD23C,2.200000*%
%ADD24R,0.800000X1.400000*%
%ADD25R,2.100000X2.400000*%
%ADD26R,0.850000X1.780000*%
%ADD27R,1.875000X2.500000*%
%ADD28R,2.775000X2.300000*%
%ADD29R,1.575000X2.300000*%
%ADD30R,1.900000X1.400000*%
%ADD31R,2.200000X1.400000*%
%ADD32R,2.240000X2.600000*%
%ADD33C,1.000000*%
G04 APERTURE END LIST*
D10*
D11*
X180340000Y-58420000D03*
D12*
X195580000Y-50800000D03*
X182880000Y-58420000D03*
X193040000Y-50800000D03*
X185420000Y-58420000D03*
X190500000Y-50800000D03*
X187960000Y-58420000D03*
X187960000Y-50800000D03*
X190500000Y-58420000D03*
X185420000Y-50800000D03*
X193040000Y-58420000D03*
X182880000Y-50800000D03*
X195580000Y-58420000D03*
X180340000Y-50800000D03*
D11*
X157480000Y-71120000D03*
D12*
X172720000Y-63500000D03*
X160020000Y-71120000D03*
X170180000Y-63500000D03*
X162560000Y-71120000D03*
X167640000Y-63500000D03*
X165100000Y-71120000D03*
X165100000Y-63500000D03*
X167640000Y-71120000D03*
X162560000Y-63500000D03*
X170180000Y-71120000D03*
X160020000Y-63500000D03*
X172720000Y-71120000D03*
X157480000Y-63500000D03*
D11*
X154940000Y-116840000D03*
D12*
X203200000Y-101600000D03*
X157480000Y-116840000D03*
X200660000Y-101600000D03*
X160020000Y-116840000D03*
X198120000Y-101600000D03*
X162560000Y-116840000D03*
X195580000Y-101600000D03*
X165100000Y-116840000D03*
X193040000Y-101600000D03*
X167640000Y-116840000D03*
X190500000Y-101600000D03*
X170180000Y-116840000D03*
X187960000Y-101600000D03*
X172720000Y-116840000D03*
X185420000Y-101600000D03*
X175260000Y-116840000D03*
X182880000Y-101600000D03*
X177800000Y-116840000D03*
X180340000Y-101600000D03*
X180340000Y-116840000D03*
X177800000Y-101600000D03*
X182880000Y-116840000D03*
X175260000Y-101600000D03*
X185420000Y-116840000D03*
X172720000Y-101600000D03*
X187960000Y-116840000D03*
X170180000Y-101600000D03*
X190500000Y-116840000D03*
X167640000Y-101600000D03*
X193040000Y-116840000D03*
X165100000Y-101600000D03*
X195580000Y-116840000D03*
X162560000Y-101600000D03*
X198120000Y-116840000D03*
X160020000Y-101600000D03*
X200660000Y-116840000D03*
X157480000Y-101600000D03*
X203200000Y-116840000D03*
X154940000Y-101600000D03*
D13*
X126745000Y-132715000D03*
X123955000Y-132715000D03*
X121155000Y-132715000D03*
X118365000Y-132715000D03*
D11*
X133350000Y-100330000D03*
D14*
X133350000Y-102330000D03*
D11*
X133350000Y-113030000D03*
D14*
X133350000Y-115030000D03*
D11*
X133350000Y-119380000D03*
D14*
X133350000Y-121380000D03*
D11*
X133350000Y-106680000D03*
D14*
X133350000Y-108680000D03*
X126365000Y-44450000D03*
X126365000Y-41950000D03*
X141605000Y-44450000D03*
X141605000Y-41950000D03*
X123190000Y-97790000D03*
X120690000Y-97790000D03*
X177800000Y-64135000D03*
X177800000Y-66635000D03*
X177165000Y-39370000D03*
X177165000Y-41870000D03*
X151130000Y-107950000D03*
X151130000Y-110450000D03*
X110490000Y-58420000D03*
X110490000Y-60920000D03*
X177165000Y-51435000D03*
X177165000Y-53935000D03*
X170180000Y-96520000D03*
X172680000Y-96520000D03*
X151765000Y-59055000D03*
X151765000Y-56555000D03*
X110490000Y-71120000D03*
X110490000Y-68620000D03*
X143510000Y-97790000D03*
X141010000Y-97790000D03*
X151765000Y-64770000D03*
X151765000Y-67270000D03*
D11*
X113030000Y-100330000D03*
D14*
X113030000Y-102330000D03*
D11*
X113030000Y-113030000D03*
D14*
X113030000Y-115030000D03*
D11*
X113030000Y-106680000D03*
D14*
X113030000Y-108680000D03*
D11*
X113030000Y-119380000D03*
D14*
X113030000Y-121380000D03*
D13*
X159130000Y-132715000D03*
X156340000Y-132715000D03*
X153540000Y-132715000D03*
X150750000Y-132715000D03*
D15*
X192405000Y-125730000D03*
X192405000Y-131730000D03*
X197105000Y-128730000D03*
D14*
X133985000Y-41910000D03*
D12*
X133985000Y-44450000D03*
D16*
X121975000Y-46355000D03*
X117475000Y-46355000D03*
X121975000Y-39855000D03*
X117475000Y-39855000D03*
D11*
X154940000Y-91440000D03*
D12*
X203200000Y-76200000D03*
X157480000Y-91440000D03*
X200660000Y-76200000D03*
X160020000Y-91440000D03*
X198120000Y-76200000D03*
X162560000Y-91440000D03*
X195580000Y-76200000D03*
X165100000Y-91440000D03*
X193040000Y-76200000D03*
X167640000Y-91440000D03*
X190500000Y-76200000D03*
X170180000Y-91440000D03*
X187960000Y-76200000D03*
X172720000Y-91440000D03*
X185420000Y-76200000D03*
X175260000Y-91440000D03*
X182880000Y-76200000D03*
X177800000Y-91440000D03*
X180340000Y-76200000D03*
X180340000Y-91440000D03*
X177800000Y-76200000D03*
X182880000Y-91440000D03*
X175260000Y-76200000D03*
X185420000Y-91440000D03*
X172720000Y-76200000D03*
X187960000Y-91440000D03*
X170180000Y-76200000D03*
X190500000Y-91440000D03*
X167640000Y-76200000D03*
X193040000Y-91440000D03*
X165100000Y-76200000D03*
X195580000Y-91440000D03*
X162560000Y-76200000D03*
X198120000Y-91440000D03*
X160020000Y-76200000D03*
X200660000Y-91440000D03*
X157480000Y-76200000D03*
X203200000Y-91440000D03*
X154940000Y-76200000D03*
D11*
X180340000Y-46990000D03*
D12*
X195580000Y-39370000D03*
X182880000Y-46990000D03*
X193040000Y-39370000D03*
X185420000Y-46990000D03*
X190500000Y-39370000D03*
X187960000Y-46990000D03*
X187960000Y-39370000D03*
X190500000Y-46990000D03*
X185420000Y-39370000D03*
X193040000Y-46990000D03*
X182880000Y-39370000D03*
X195580000Y-46990000D03*
X180340000Y-39370000D03*
D11*
X138430000Y-102870000D03*
D12*
X146050000Y-120650000D03*
X138430000Y-105410000D03*
X146050000Y-118110000D03*
X138430000Y-107950000D03*
X146050000Y-115570000D03*
X138430000Y-110490000D03*
X146050000Y-113030000D03*
X138430000Y-113030000D03*
X146050000Y-110490000D03*
X138430000Y-115570000D03*
X146050000Y-107950000D03*
X138430000Y-118110000D03*
X146050000Y-105410000D03*
X138430000Y-120650000D03*
X146050000Y-102870000D03*
D11*
X114300000Y-71120000D03*
D12*
X147320000Y-55880000D03*
X116840000Y-71120000D03*
X144780000Y-55880000D03*
X119380000Y-71120000D03*
X142240000Y-55880000D03*
X121920000Y-71120000D03*
X139700000Y-55880000D03*
X124460000Y-71120000D03*
X137160000Y-55880000D03*
X127000000Y-71120000D03*
X134620000Y-55880000D03*
X129540000Y-71120000D03*
X132080000Y-55880000D03*
X132080000Y-71120000D03*
X129540000Y-55880000D03*
X134620000Y-71120000D03*
X127000000Y-55880000D03*
X137160000Y-71120000D03*
X124460000Y-55880000D03*
X139700000Y-71120000D03*
X121920000Y-55880000D03*
X142240000Y-71120000D03*
X119380000Y-55880000D03*
X144780000Y-71120000D03*
X116840000Y-55880000D03*
X147320000Y-71120000D03*
X114300000Y-55880000D03*
D11*
X118110000Y-102870000D03*
D12*
X125730000Y-120650000D03*
X118110000Y-105410000D03*
X125730000Y-118110000D03*
X118110000Y-107950000D03*
X125730000Y-115570000D03*
X118110000Y-110490000D03*
X125730000Y-113030000D03*
X118110000Y-113030000D03*
X125730000Y-110490000D03*
X118110000Y-115570000D03*
X125730000Y-107950000D03*
X118110000Y-118110000D03*
X125730000Y-105410000D03*
X118110000Y-120650000D03*
X125730000Y-102870000D03*
D17*
X203200000Y-121285000D03*
D18*
X203200000Y-123825000D03*
X203200000Y-126365000D03*
D19*
X110490000Y-132080000D03*
X201930000Y-40640000D03*
X110490000Y-40640000D03*
X201930000Y-132080000D03*
D11*
X157480000Y-59055000D03*
D14*
X157480000Y-51435000D03*
X172720000Y-51435000D03*
X172720000Y-59055000D03*
D11*
X157480000Y-59055000D03*
D14*
X157480000Y-51435000D03*
X165100000Y-51435000D03*
X165100000Y-59055000D03*
X196850000Y-118745000D03*
X196850000Y-123745000D03*
D11*
X190500000Y-120650000D03*
D14*
X193000000Y-120650000D03*
D17*
X130175000Y-39370000D03*
D18*
X130175000Y-46990000D03*
D20*
X137795000Y-44450000D03*
D21*
X137795000Y-41910000D03*
D11*
X109220000Y-91440000D03*
D12*
X147320000Y-76200000D03*
X111760000Y-91440000D03*
X144780000Y-76200000D03*
X114300000Y-91440000D03*
X142240000Y-76200000D03*
X116840000Y-91440000D03*
X139700000Y-76200000D03*
X119380000Y-91440000D03*
X137160000Y-76200000D03*
X121920000Y-91440000D03*
X134620000Y-76200000D03*
X124460000Y-91440000D03*
X132080000Y-76200000D03*
X127000000Y-91440000D03*
X129540000Y-76200000D03*
X129540000Y-91440000D03*
X127000000Y-76200000D03*
X132080000Y-91440000D03*
X124460000Y-76200000D03*
X134620000Y-91440000D03*
X121920000Y-76200000D03*
X137160000Y-91440000D03*
X119380000Y-76200000D03*
X139700000Y-91440000D03*
X116840000Y-76200000D03*
X142240000Y-91440000D03*
X114300000Y-76200000D03*
X144780000Y-91440000D03*
X111760000Y-76200000D03*
X147320000Y-91440000D03*
X109220000Y-76200000D03*
D22*
X109220000Y-85090000D03*
X109220000Y-82550000D03*
D17*
X168910000Y-132080000D03*
D23*
X166370000Y-132080000D03*
D24*
X175764000Y-120798000D03*
X176414000Y-120798000D03*
X177064000Y-120798000D03*
X177714000Y-120798000D03*
X178364000Y-120798000D03*
X179014000Y-120798000D03*
X179664000Y-120798000D03*
X180314000Y-120798000D03*
X180964000Y-120798000D03*
X181614000Y-120798000D03*
X181614000Y-126598000D03*
X180964000Y-126598000D03*
X180314000Y-126598000D03*
X179664000Y-126598000D03*
X179014000Y-126598000D03*
X178364000Y-126598000D03*
X177714000Y-126598000D03*
X177064000Y-126598000D03*
X176414000Y-126598000D03*
X175764000Y-126598000D03*
D25*
X169926000Y-121444000D03*
X169926000Y-125444000D03*
D26*
X180624000Y-131706000D03*
X179974000Y-131706000D03*
X179324000Y-131706000D03*
X178674000Y-131706000D03*
X178024000Y-131706000D03*
D27*
X181786500Y-132066000D03*
X176861500Y-132066000D03*
D28*
X182234000Y-134366000D03*
X176414000Y-134366000D03*
D29*
X180164000Y-134366000D03*
X178484000Y-134366000D03*
D10*
G36*
X162443000Y-123125000D02*
X163693000Y-122525000D01*
X163693000Y-125125000D01*
X162443000Y-124525000D01*
X162443000Y-123125000D01*
X162443000Y-123125000D01*
G37*
D30*
X167215000Y-122325000D03*
D31*
X167068500Y-123825000D03*
D30*
X167215000Y-125325000D03*
D32*
X164401500Y-123825000D03*
D10*
G36*
X166511200Y-124425000D02*
X165111200Y-125125000D01*
X165111200Y-122525000D01*
X166511200Y-123225000D01*
X166511200Y-124425000D01*
X166511200Y-124425000D01*
G37*
D11*
X157480000Y-46990000D03*
D12*
X172720000Y-39370000D03*
X160020000Y-46990000D03*
X170180000Y-39370000D03*
X162560000Y-46990000D03*
X167640000Y-39370000D03*
X165100000Y-46990000D03*
X165100000Y-39370000D03*
X167640000Y-46990000D03*
X162560000Y-39370000D03*
X170180000Y-46990000D03*
X160020000Y-39370000D03*
X172720000Y-46990000D03*
X157480000Y-39370000D03*
D11*
X180340000Y-71120000D03*
D12*
X198120000Y-63500000D03*
X182880000Y-71120000D03*
X195580000Y-63500000D03*
X185420000Y-71120000D03*
X193040000Y-63500000D03*
X187960000Y-71120000D03*
X190500000Y-63500000D03*
X190500000Y-71120000D03*
X187960000Y-63500000D03*
X193040000Y-71120000D03*
X185420000Y-63500000D03*
X195580000Y-71120000D03*
X182880000Y-63500000D03*
X198120000Y-71120000D03*
X180340000Y-63500000D03*
D14*
X177800000Y-96520000D03*
D12*
X185420000Y-96520000D03*
D22*
X162560000Y-96520000D03*
X160020000Y-96520000D03*
D33*
X137160000Y-104140000D03*
X135890000Y-119380000D03*
X135890000Y-115570000D03*
X133350000Y-106680000D03*
X158750000Y-93345000D03*
X181610000Y-60960000D03*
X185420000Y-60960000D03*
X163830000Y-115570000D03*
X167640000Y-65405000D03*
X157480000Y-65405000D03*
X162560000Y-105410000D03*
X191135000Y-105410000D03*
X114300000Y-62230000D03*
X180340000Y-62230000D03*
X139700000Y-116840000D03*
X139700000Y-104140000D03*
X119380000Y-116840000D03*
X119380000Y-104140000D03*
X170180000Y-93345000D03*
X162560000Y-93345000D03*
X165100000Y-69215000D03*
X160020000Y-69215000D03*
X167640000Y-43815000D03*
X195580000Y-53975000D03*
X197485000Y-49530000D03*
X197485000Y-48260000D03*
X168275000Y-122555000D03*
X172212000Y-122682000D03*
X182880000Y-120650000D03*
X185928000Y-122682000D03*
X153670000Y-73025000D03*
X153670000Y-44450000D03*
X166370000Y-100330000D03*
X166370000Y-73025000D03*
X162560000Y-73025000D03*
X116840000Y-104140000D03*
X115570000Y-119380000D03*
X115570000Y-115570000D03*
X144780000Y-126365000D03*
X151765000Y-128905000D03*
X154940000Y-128905000D03*
X154940000Y-127000000D03*
X156210000Y-128270000D03*
X153035000Y-127635000D03*
X120015000Y-127635000D03*
X120015000Y-122555000D03*
X120650000Y-107950000D03*
X122555000Y-128270000D03*
X122555000Y-125095000D03*
X120650000Y-123190000D03*
X123825000Y-128270000D03*
X121285000Y-127635000D03*
X191770000Y-81915000D03*
X202565000Y-81915000D03*
X119380000Y-81915000D03*
X194310000Y-81280000D03*
X114300000Y-81280000D03*
X200660000Y-81280000D03*
X184150000Y-62230000D03*
X198120000Y-80645000D03*
X111760000Y-80645000D03*
X201295000Y-80010000D03*
X196215000Y-80010000D03*
X195580000Y-73660000D03*
X137160000Y-73660000D03*
X139700000Y-74295000D03*
X194310000Y-92710000D03*
X199390000Y-92710000D03*
X193040000Y-74295000D03*
X142240000Y-74930000D03*
X190500000Y-74930000D03*
X190500000Y-77470000D03*
X194945000Y-77470000D03*
X144780000Y-77470000D03*
X187960000Y-77470000D03*
X189230000Y-95250000D03*
X198120000Y-95250000D03*
X153670000Y-90170000D03*
X172720000Y-90170000D03*
X137160000Y-90170000D03*
X147320000Y-78105000D03*
X186690000Y-95885000D03*
X194310000Y-95885000D03*
X185420000Y-78105000D03*
X160020000Y-114300000D03*
X176530000Y-114300000D03*
X175260000Y-89535000D03*
X134620000Y-89535000D03*
X184150000Y-93980000D03*
X195580000Y-93980000D03*
X182880000Y-78740000D03*
X144780000Y-78740000D03*
X165100000Y-106680000D03*
X186690000Y-106680000D03*
X177800000Y-88900000D03*
X132080000Y-88900000D03*
X181610000Y-93345000D03*
X191135000Y-93345000D03*
X180340000Y-79375000D03*
X142240000Y-79375000D03*
X167640000Y-113665000D03*
X179705000Y-113665000D03*
X179705000Y-111125000D03*
X188595000Y-111125000D03*
X180340000Y-88265000D03*
X129540000Y-88265000D03*
X139700000Y-80010000D03*
X179070000Y-92710000D03*
X191770000Y-92710000D03*
X177800000Y-80010000D03*
X182880000Y-87630000D03*
X127000000Y-87630000D03*
X171450000Y-93980000D03*
X118110000Y-92710000D03*
X201930000Y-60325000D03*
X201930000Y-86995000D03*
X185420000Y-86995000D03*
X124460000Y-86995000D03*
X191770000Y-53975000D03*
X191770000Y-60960000D03*
X199390000Y-60960000D03*
X199390000Y-86360000D03*
X187960000Y-86360000D03*
X121920000Y-86360000D03*
X170180000Y-65405000D03*
X171450000Y-73025000D03*
X176530000Y-73025000D03*
X189230000Y-61595000D03*
X198755000Y-78740000D03*
X198755000Y-85725000D03*
X190500000Y-85725000D03*
X119380000Y-85725000D03*
X162560000Y-66675000D03*
X167640000Y-66675000D03*
X180340000Y-85090000D03*
X121920000Y-85090000D03*
X193040000Y-85090000D03*
X182245000Y-84455000D03*
X124460000Y-84455000D03*
X195580000Y-84455000D03*
X184150000Y-83820000D03*
X198120000Y-83820000D03*
X132080000Y-83820000D03*
X186690000Y-83185000D03*
X200660000Y-83185000D03*
X127000000Y-83185000D03*
X189230000Y-82550000D03*
X116840000Y-82550000D03*
X203200000Y-82550000D03*
X132715000Y-40005000D03*
X132715000Y-46990000D03*
X130810000Y-55245000D03*
X196215000Y-45085000D03*
X182880000Y-44450000D03*
X187960000Y-44450000D03*
X134620000Y-59690000D03*
X204470000Y-48895000D03*
X187960000Y-48895000D03*
X204470000Y-99695000D03*
X187960000Y-99695000D03*
X135890000Y-72390000D03*
X160655000Y-66040000D03*
X172720000Y-66040000D03*
X182880000Y-113030000D03*
X180340000Y-112395000D03*
X177800000Y-111760000D03*
X179070000Y-119380000D03*
X179070000Y-115570000D03*
X189230000Y-115570000D03*
X170180000Y-111125000D03*
X148590000Y-113030000D03*
X148590000Y-123190000D03*
X130175000Y-123190000D03*
X130810000Y-122555000D03*
X182880000Y-110490000D03*
X147955000Y-112395000D03*
X147955000Y-122555000D03*
X180340000Y-109855000D03*
X135255000Y-111760000D03*
X177800000Y-109220000D03*
X180314000Y-119761000D03*
X176403000Y-125476000D03*
X184150000Y-102870000D03*
X184150000Y-119380000D03*
X132080000Y-47625000D03*
X132080000Y-38100000D03*
X139700000Y-93345000D03*
X132715000Y-89535000D03*
X113665000Y-89535000D03*
X156210000Y-93345000D03*
X158750000Y-108585000D03*
X184785000Y-108585000D03*
X139065000Y-92710000D03*
X185420000Y-104140000D03*
X161290000Y-104140000D03*
X156845000Y-92710000D03*
X135255000Y-90170000D03*
X163195000Y-67945000D03*
X165100000Y-67945000D03*
X178816000Y-125476000D03*
X184404000Y-121666000D03*
X181229000Y-122301000D03*
X176403000Y-121920000D03*
X180975000Y-127889000D03*
X179705000Y-127889000D03*
X177927000Y-127889000D03*
X161290000Y-48260000D03*
X194310000Y-48260000D03*
X173101000Y-126492000D03*
X175006000Y-124587000D03*
X190500000Y-44450000D03*
X162560000Y-45085000D03*
M02*
