M48
INCH,TZ
T1C0.016
T2C0.031
T3C0.035
T4C0.039
T5C0.043
T6C0.120
%
G90
G05
T1
X44000Y-31750
X44750Y-35250
X45000Y-24500
X45000Y-32000
X45500Y-45500
X45500Y-47000
X46000Y-32500
X46000Y-41000
X46500Y-36500
X47000Y-32250
X47000Y-33750
X47000Y-41000
X47000Y-46000
X47250Y-48250
X47250Y-50250
X47500Y-42500
X47500Y-48500
X47750Y-50250
X48000Y-33500
X48000Y-34000
X48250Y-49250
X48250Y-50500
X48750Y-50500
X49000Y-33250
X49000Y-34250
X50000Y-32750
X50000Y-34500
X51000Y-34750
X51250Y-48500
X51500Y-21750
X51500Y-48250
X52000Y-15000
X52000Y-18750
X52000Y-33000
X52000Y-35000
X52250Y-15750
X52250Y-18500
X52250Y-35250
X52500Y-42000
X53000Y-23500
X53000Y-35250
X53250Y-35500
X53250Y-44000
X53500Y-28500
X53500Y-45500
X53500Y-47000
X54000Y-29000
X54000Y-35500
X54000Y-41000
X54750Y-36500
X55000Y-29250
X55000Y-31500
X55000Y-36750
X55000Y-41000
X55000Y-46000
X56000Y-29500
X56000Y-31250
X57000Y-30500
X57000Y-31000
X57000Y-49750
X58000Y-30750
X58250Y-44250
X58250Y-48250
X58500Y-44500
X58500Y-48500
X59750Y-50750
X60250Y-50250
X60500Y-17500
X60500Y-28750
X60500Y-35500
X61000Y-50000
X61000Y-50750
X61500Y-36750
X61500Y-50500
X61750Y-36500
X62000Y-25750
X62500Y-36750
X62500Y-42750
X63000Y-27250
X63000Y-45000
X63250Y-26000
X63500Y-19000
X63500Y-41000
X64000Y-17750
X64000Y-26250
X64000Y-28750
X64000Y-36750
X64000Y-41500
X64250Y-26750
X64500Y-45500
X65000Y-26750
X65000Y-27250
X65000Y-42000
X65500Y-28750
X65500Y-39500
X66000Y-17250
X66000Y-25750
X66000Y-26250
X66000Y-44750
X66250Y-48250
X67000Y-25750
X67000Y-36750
X67000Y-43750
X67500Y-28750
X67500Y-37000
X67800Y-48300
X68000Y-26000
X68000Y-35500
X68150Y-49800
X68900Y-49050
X69000Y-35250
X69450Y-48000
X69450Y-49400
X69500Y-28750
X69500Y-45000
X70000Y-31500
X70000Y-35000
X70000Y-43000
X70000Y-44000
X70050Y-50350
X70400Y-49400
X70500Y-36500
X70500Y-45500
X70500Y-47000
X70750Y-43750
X70750Y-44750
X70750Y-50350
X70990Y-47150
X71000Y-24500
X71000Y-31250
X71000Y-33500
X71000Y-34750
X71000Y-43250
X71000Y-44250
X71250Y-50350
X71350Y-48150
X71500Y-24000
X71500Y-36750
X71750Y-33250
X72000Y-17500
X72000Y-31000
X72000Y-34500
X72000Y-43500
X72000Y-44500
X72000Y-47500
X72500Y-24500
X72500Y-33000
X72500Y-37000
X72500Y-40500
X72500Y-47000
X72600Y-47900
X72750Y-42750
X73000Y-24000
X73000Y-30750
X73000Y-34250
X73000Y-41000
X73200Y-48300
X73500Y-32750
X73500Y-37750
X73500Y-42000
X74000Y-17500
X74000Y-19250
X74000Y-30500
X74000Y-34000
X74000Y-39250
X74250Y-43750
X74500Y-24250
X74500Y-32500
X74500Y-37500
X74500Y-45500
X75000Y-17500
X75000Y-29500
X75000Y-30500
X75000Y-33750
X75250Y-36750
X75250Y-41500
X75500Y-21250
X75500Y-24000
X75500Y-32250
X75500Y-36500
X76000Y-29250
X76000Y-33500
X76500Y-19000
X76500Y-32000
X76500Y-36500
X76500Y-37750
X76750Y-30500
X77000Y-21250
X77000Y-29000
X77000Y-33250
X77000Y-37000
X77250Y-17750
X77250Y-31500
X77750Y-19000
X77750Y-19500
X78000Y-31750
X78000Y-33000
X78000Y-37500
X78250Y-31000
X78250Y-33750
X78500Y-24000
X78500Y-34000
X78500Y-36500
X79000Y-32000
X79000Y-32750
X79250Y-31500
X79500Y-23750
X79500Y-34250
X79750Y-32250
X80000Y-32500
X80500Y-19250
X80500Y-39250
T2
X43000Y-30000
X43000Y-32500
X43000Y-33500
X43000Y-36000
X43500Y-23000
X43500Y-23984
X43500Y-27016
X43500Y-28000
X44000Y-30000
X44000Y-36000
X44500Y-39500
X44500Y-40287
X44500Y-42000
X44500Y-42787
X44500Y-44500
X44500Y-45287
X44500Y-47000
X44500Y-47787
X45000Y-22000
X45000Y-28000
X45000Y-30000
X45000Y-36000
X46000Y-22000
X46000Y-28000
X46000Y-30000
X46000Y-36000
X46500Y-40500
X46500Y-41500
X46500Y-42500
X46500Y-43500
X46500Y-44500
X46500Y-45500
X46500Y-46500
X46500Y-47500
X47000Y-22000
X47000Y-28000
X47000Y-30000
X47000Y-36000
X47516Y-38500
X48000Y-22000
X48000Y-28000
X48000Y-30000
X48000Y-36000
X48500Y-38500
X49000Y-22000
X49000Y-28000
X49000Y-30000
X49000Y-36000
X49500Y-40500
X49500Y-41500
X49500Y-42500
X49500Y-43500
X49500Y-44500
X49500Y-45500
X49500Y-46500
X49500Y-47500
X49750Y-16516
X49750Y-17500
X50000Y-22000
X50000Y-28000
X50000Y-30000
X50000Y-36000
X51000Y-22000
X51000Y-28000
X51000Y-30000
X51000Y-36000
X52000Y-22000
X52000Y-28000
X52000Y-30000
X52000Y-36000
X52500Y-39500
X52500Y-40287
X52500Y-42000
X52500Y-42787
X52500Y-44500
X52500Y-45287
X52500Y-47000
X52500Y-47787
X52750Y-16500
X52750Y-17500
X53000Y-22000
X53000Y-28000
X53000Y-30000
X53000Y-36000
X54000Y-22000
X54000Y-28000
X54000Y-30000
X54000Y-36000
X54500Y-40500
X54500Y-41500
X54500Y-42500
X54500Y-43500
X54500Y-44500
X54500Y-45500
X54500Y-46500
X54500Y-47500
X55000Y-22000
X55000Y-28000
X55000Y-30000
X55000Y-36000
X55516Y-38500
X55750Y-16516
X55750Y-17500
X56000Y-22000
X56000Y-28000
X56000Y-30000
X56000Y-36000
X56500Y-38500
X57000Y-22000
X57000Y-28000
X57000Y-30000
X57000Y-36000
X57500Y-40500
X57500Y-41500
X57500Y-42500
X57500Y-43500
X57500Y-44500
X57500Y-45500
X57500Y-46500
X57500Y-47500
X58000Y-22000
X58000Y-28000
X58000Y-30000
X58000Y-36000
X59500Y-42500
X59500Y-43484
X59750Y-22266
X59750Y-23250
X59750Y-25500
X59750Y-26484
X61000Y-30000
X61000Y-36000
X61000Y-40000
X61000Y-46000
X62000Y-15500
X62000Y-18500
X62000Y-20250
X62000Y-20250
X62000Y-23250
X62000Y-23250
X62000Y-25000
X62000Y-28000
X62000Y-30000
X62000Y-36000
X62000Y-40000
X62000Y-46000
X63000Y-15500
X63000Y-18500
X63000Y-25000
X63000Y-28000
X63000Y-30000
X63000Y-36000
X63000Y-38000
X63000Y-40000
X63000Y-46000
X64000Y-15500
X64000Y-18500
X64000Y-25000
X64000Y-28000
X64000Y-30000
X64000Y-36000
X64000Y-38000
X64000Y-40000
X64000Y-46000
X65000Y-15500
X65000Y-18500
X65000Y-20250
X65000Y-23250
X65000Y-25000
X65000Y-28000
X65000Y-30000
X65000Y-36000
X65000Y-40000
X65000Y-46000
X66000Y-15500
X66000Y-18500
X66000Y-25000
X66000Y-28000
X66000Y-30000
X66000Y-36000
X66000Y-40000
X66000Y-46000
X67000Y-15500
X67000Y-18500
X67000Y-25000
X67000Y-28000
X67000Y-30000
X67000Y-36000
X67000Y-38000
X67000Y-40000
X67000Y-46000
X67984Y-38000
X68000Y-15500
X68000Y-18500
X68000Y-20250
X68000Y-23250
X68000Y-25000
X68000Y-28000
X68000Y-30000
X68000Y-36000
X68000Y-40000
X68000Y-46000
X69000Y-30000
X69000Y-36000
X69000Y-40000
X69000Y-46000
X69750Y-15500
X69750Y-16484
X69750Y-20250
X69750Y-21234
X70000Y-25250
X70000Y-26234
X70000Y-30000
X70000Y-36000
X70000Y-38000
X70000Y-40000
X70000Y-46000
X71000Y-15500
X71000Y-18500
X71000Y-20000
X71000Y-23000
X71000Y-25000
X71000Y-28000
X71000Y-30000
X71000Y-36000
X71000Y-40000
X71000Y-46000
X72000Y-15500
X72000Y-18500
X72000Y-20000
X72000Y-23000
X72000Y-25000
X72000Y-28000
X72000Y-30000
X72000Y-36000
X72000Y-40000
X72000Y-46000
X73000Y-15500
X73000Y-18500
X73000Y-20000
X73000Y-23000
X73000Y-25000
X73000Y-28000
X73000Y-30000
X73000Y-36000
X73000Y-38000
X73000Y-40000
X73000Y-46000
X74000Y-15500
X74000Y-18500
X74000Y-20000
X74000Y-23000
X74000Y-25000
X74000Y-28000
X74000Y-30000
X74000Y-36000
X74000Y-40000
X74000Y-46000
X75000Y-15500
X75000Y-18500
X75000Y-20000
X75000Y-23000
X75000Y-25000
X75000Y-28000
X75000Y-30000
X75000Y-36000
X75000Y-40000
X75000Y-46000
X75000Y-47500
X75984Y-47500
X76000Y-15500
X76000Y-18500
X76000Y-20000
X76000Y-23000
X76000Y-25000
X76000Y-28000
X76000Y-30000
X76000Y-36000
X76000Y-40000
X76000Y-46000
X77000Y-15500
X77000Y-18500
X77000Y-20000
X77000Y-23000
X77000Y-25000
X77000Y-28000
X77000Y-30000
X77000Y-36000
X77000Y-40000
X77000Y-46000
X77500Y-46750
X77500Y-48719
X78000Y-25000
X78000Y-28000
X78000Y-30000
X78000Y-36000
X78000Y-40000
X78000Y-46000
X79000Y-30000
X79000Y-36000
X79000Y-40000
X79000Y-46000
X80000Y-30000
X80000Y-36000
X80000Y-40000
X80000Y-46000
T3
X51250Y-15500
X51250Y-18500
X65500Y-52000
X66500Y-52000
T4
X54250Y-16500
X54250Y-17500
X80000Y-47750
X80000Y-48750
X80000Y-49750
T5
X46250Y-15691
X46250Y-18250
X48022Y-15691
X48022Y-18250
T6
X43500Y-16000
X43500Y-52000
X79500Y-16000
X79500Y-52000
T4
X75356Y-49500G85X76144Y-49500
G05
X75356Y-51862G85X76144Y-51862
G05
X77600Y-51075G85X77600Y-50287
G05
T0
M30
